HIERARCHY
ROOT __0
{
	OFFSET 0.0 0.0 0.0
	CHANNELS 0
	JOINT Coluna inicio
	{
		OFFSET 0.000000 0.000000 0.000000
		CHANNELS 6 Xposition Yposition Zposition Xrotation Yrotation Zrotation
		JOINT Coluna fim
		{
			OFFSET -0.004211 0.008762 1.002173
			CHANNELS 3 Xrotation Yrotation Zrotation
			JOINT Base Rabo
			{
				OFFSET 0.019940 -0.259367 0.778673
				CHANNELS 3 Xrotation Yrotation Zrotation
				JOINT Osso(s).003
				{
					OFFSET -0.004296 -0.007910 0.653717
					CHANNELS 3 Xrotation Yrotation Zrotation
					End Site
					{
						OFFSET 0.077326 0.000000 0.000000
					}
				}
				JOINT inicio rabo
				{
					OFFSET -0.004296 -0.007910 0.653717
					CHANNELS 3 Xrotation Yrotation Zrotation
					JOINT Meio Rabo
					{
						OFFSET -0.004296 -0.709959 0.247224
						CHANNELS 3 Xrotation Yrotation Zrotation
						JOINT Ponta Raboi
						{
							OFFSET 0.004296 -0.654937 0.172854
							CHANNELS 3 Xrotation Yrotation Zrotation
							End Site
							{
								OFFSET 0.077326 -0.641542 0.003407
							}
						}
					}
				}
			}
			JOINT BaseLagL
			{
				OFFSET 0.019940 -0.259367 0.778673
				CHANNELS 3 Xrotation Yrotation Zrotation
				JOINT Osso(s).008
				{
					OFFSET 0.570019 0.330718 -0.001756
					CHANNELS 3 Xrotation Yrotation Zrotation
					JOINT Osso(s).009
					{
						OFFSET 0.000000 1.113513 -0.145525
						CHANNELS 3 Xrotation Yrotation Zrotation
						JOINT Osso(s).010
						{
							OFFSET -0.153831 0.582186 0.270023
							CHANNELS 3 Xrotation Yrotation Zrotation
							JOINT Osso(s).011
							{
								OFFSET 0.031087 0.451030 -0.478059
								CHANNELS 3 Xrotation Yrotation Zrotation
								End Site
								{
									OFFSET 0.003787 0.134467 -0.302021
								}
							}
						}
					}
				}
			}
			JOINT BaseLagR
			{
				OFFSET -0.019827 -0.259366 0.778673
				CHANNELS 6 Xposition Yposition Zposition Xrotation Yrotation Zrotation
				JOINT Osso(s).017
				{
					OFFSET -0.570019 0.330718 -0.001756
					CHANNELS 3 Xrotation Yrotation Zrotation
					JOINT Osso(s).018
					{
						OFFSET 0.000000 1.113513 -0.145525
						CHANNELS 3 Xrotation Yrotation Zrotation
						JOINT Osso(s).019
						{
							OFFSET 0.153831 0.582186 0.270023
							CHANNELS 3 Xrotation Yrotation Zrotation
							JOINT Osso(s).020
							{
								OFFSET -0.031087 0.451030 -0.478059
								CHANNELS 3 Xrotation Yrotation Zrotation
								End Site
								{
									OFFSET 0.098858 0.142562 -0.281176
								}
							}
						}
					}
				}
			}
		}
	}
	JOINT BaseArmL
	{
		OFFSET 0.000000 0.000000 0.000000
		CHANNELS 6 Xposition Yposition Zposition Xrotation Yrotation Zrotation
		JOINT Osso(s).013
		{
			OFFSET 0.722479 0.789726 -0.335264
			CHANNELS 3 Xrotation Yrotation Zrotation
			JOINT Osso(s).014
			{
				OFFSET 0.000000 0.833901 -0.004428
				CHANNELS 3 Xrotation Yrotation Zrotation
				JOINT Osso(s).015
				{
					OFFSET -0.130935 0.565669 -0.236843
					CHANNELS 3 Xrotation Yrotation Zrotation
					End Site
					{
						OFFSET -0.004223 0.149633 -0.290700
					}
				}
			}
		}
	}
	JOINT BaseArmR
	{
		OFFSET -0.008309 0.000001 -0.000000
		CHANNELS 6 Xposition Yposition Zposition Xrotation Yrotation Zrotation
		JOINT Osso(s).021
		{
			OFFSET -0.722479 0.789726 -0.335264
			CHANNELS 3 Xrotation Yrotation Zrotation
			JOINT Osso(s).022
			{
				OFFSET 0.000000 0.833901 -0.004428
				CHANNELS 3 Xrotation Yrotation Zrotation
				JOINT Osso(s).023
				{
					OFFSET 0.130935 0.565668 -0.236843
					CHANNELS 3 Xrotation Yrotation Zrotation
					End Site
					{
						OFFSET 0.004223 0.149633 -0.290701
					}
				}
			}
		}
	}
	JOINT Pescoço inicio
	{
		OFFSET 0.000000 0.000000 0.000000
		CHANNELS 6 Xposition Yposition Zposition Xrotation Yrotation Zrotation
		JOINT Pescoço
		{
			OFFSET 0.000000 -0.181435 -0.352807
			CHANNELS 3 Xrotation Yrotation Zrotation
			JOINT Cabeça
			{
				OFFSET 0.000000 -0.274504 -0.237973
				CHANNELS 3 Xrotation Yrotation Zrotation
				JOINT Osso(s).027
				{
					OFFSET 0.000000 -1.004322 0.005333
					CHANNELS 3 Xrotation Yrotation Zrotation
					JOINT Orelha BaseL
					{
						OFFSET 0.486284 0.000000 0.000000
						CHANNELS 3 Xrotation Yrotation Zrotation
						JOINT OrelhaPontaL
						{
							OFFSET 0.000000 -0.443769 -0.424867
							CHANNELS 3 Xrotation Yrotation Zrotation
							End Site
							{
								OFFSET 0.114109 -0.201182 -0.214348
							}
						}
					}
				}
				JOINT Testa
				{
					OFFSET 0.000000 -1.004322 0.005333
					CHANNELS 3 Xrotation Yrotation Zrotation
					JOINT EntreOlhos
					{
						OFFSET 0.000000 -0.003771 -0.710243
						CHANNELS 3 Xrotation Yrotation Zrotation
						JOINT SombranselhaL
						{
							OFFSET 0.000000 0.377966 -0.406650
							CHANNELS 3 Xrotation Yrotation Zrotation
							End Site
							{
								OFFSET 0.348212 -0.165097 0.027791
							}
						}
						JOINT SombranselhaR
						{
							OFFSET -0.015806 0.377966 -0.406650
							CHANNELS 6 Xposition Yposition Zposition Xrotation Yrotation Zrotation
							End Site
							{
								OFFSET -0.348212 -0.165097 0.027791
							}
						}
					}
				}
				JOINT Osso(s).034
				{
					OFFSET 0.014762 -1.004322 0.005333
					CHANNELS 6 Xposition Yposition Zposition Xrotation Yrotation Zrotation
					JOINT Orelha baseR
					{
						OFFSET -0.486284 0.000000 0.000000
						CHANNELS 3 Xrotation Yrotation Zrotation
						JOINT Orelha PontaR
						{
							OFFSET 0.000000 -0.443769 -0.424867
							CHANNELS 3 Xrotation Yrotation Zrotation
							End Site
							{
								OFFSET -0.114109 -0.201182 -0.214348
							}
						}
					}
				}
			}
		}
	}
}
MOTION
Frames: 4
Frame Time: 0.041667
0.000000 0.000000 0.000000 0.000001 0.000012 0.000016 -0.000000 0.000002 0.000015 0.000000 -0.000000 0.000000 -0.000000 0.000000 0.000000 2.500475 -0.838309 9.137705 -4.220999 1.201365 -16.783443 -43.837274 21.894677 6.953871 0.000010 -0.000004 0.000018 27.269115 -0.000021 -0.000013 -0.000011 -0.000006 -0.000006 33.792928 -0.000016 0.000022 -0.000017 0.000004 0.000006 -0.019827 -0.259366 0.778672 0.000010 0.000015 0.000008 24.775401 -0.000295 -0.000066 -0.000015 -0.000001 -0.000016 30.496043 0.000014 0.000125 -0.000015 -0.000014 0.000026 0.000000 0.000000 0.000000 0.000002 -0.000008 -0.000018 -36.392850 0.000010 0.000015 10.899201 -0.000002 0.000003 0.000008 -0.000012 -0.000003 -0.008309 0.000001 -0.000000 -0.000003 0.000009 0.000013 -29.142187 -0.000031 -0.000014 8.711743 0.282271 4.077736 0.000029 0.000017 0.000007 0.000000 0.000000 0.000000 0.000000 -0.000000 -0.000000 -0.000002 -0.000000 0.000000 -0.000002 -0.000000 0.000000 0.000000 0.000000 -0.000000 -8.976687 -16.138052 3.673236 0.000001 0.000001 -0.000005 0.000000 -0.000000 -0.000000 -0.000000 -0.000000 -0.000000 0.000000 -0.000000 -0.000001 -0.015806 0.377966 -0.406650 0.000003 0.000000 0.000002 0.014762 -1.004322 0.005333 0.000000 -0.000000 -0.000000 -4.997124 -13.930294 -9.760006 -31.413645 -7.405898 6.159704 
0.000000 0.000000 0.000000 0.000006 0.000011 0.000013 0.000003 0.000002 0.000013 -0.000000 0.000000 0.000000 0.000000 0.000000 0.000000 2.497763 -0.818666 9.166233 -4.221419 1.175032 -16.825391 -43.799913 21.960223 6.783959 0.000010 -0.000002 0.000015 27.269114 -0.000022 -0.000012 -0.000009 -0.000003 -0.000003 33.792941 -0.000013 0.000019 -0.000019 -0.000003 0.000010 -0.019827 -0.259367 0.778672 0.000008 0.000014 0.000005 24.770784 -0.001209 -0.000212 -0.000013 0.000002 -0.000023 30.493117 0.000035 0.000478 -0.000015 -0.000010 0.000023 0.000000 0.000000 0.000000 0.000005 -0.000012 -0.000023 -36.387211 0.000010 0.000006 10.899198 -0.000006 0.000005 0.000012 -0.000005 -0.000004 -0.008309 0.000001 -0.000000 -0.000001 0.000014 0.000017 -29.142177 -0.000022 0.000006 8.711751 0.282275 4.077746 0.000007 0.000004 -0.000011 0.000000 0.000000 0.000000 0.000000 -0.000000 -0.000000 -0.000002 -0.000000 0.000000 -0.000002 -0.000000 0.000000 0.000000 0.000000 -0.000000 -8.839960 -15.970219 3.873176 0.000003 -0.000002 0.000001 0.000000 -0.000000 -0.000000 -0.000000 -0.000000 -0.000000 0.000000 -0.000000 -0.000001 -0.015806 0.377966 -0.406650 0.000003 0.000000 0.000002 0.014762 -1.004322 0.005333 0.000000 -0.000000 -0.000000 -4.908301 -13.753768 -9.412445 -31.413645 -7.405898 6.159704 
0.000000 0.000000 0.000000 0.000013 0.000017 0.000023 -0.000000 0.000002 0.000023 0.000002 0.000000 0.000001 -0.000000 -0.000000 0.000000 2.489895 -0.762023 9.248392 -4.222688 1.099169 -16.946217 -43.687116 22.146873 6.292463 0.000009 -0.000004 0.000018 27.269114 -0.000018 -0.000019 -0.000013 -0.000004 -0.000010 33.792938 -0.000019 0.000019 -0.000023 -0.000018 0.000015 -0.019827 -0.259367 0.778673 0.000003 0.000012 0.000010 24.763138 -0.002717 -0.000470 -0.000018 0.000010 -0.000028 30.488253 0.000068 0.001068 -0.000022 -0.000026 0.000026 0.000000 0.000000 0.000000 -0.000000 0.000001 -0.000004 -36.377830 -0.000000 -0.000031 10.899216 -0.000023 -0.000009 -0.000014 0.000020 0.000014 -0.008309 0.000001 -0.000000 -0.000001 0.000014 0.000017 -29.142184 -0.000020 0.000011 8.711755 0.282274 4.077749 0.000007 0.000007 -0.000017 0.000000 0.000000 0.000000 0.000000 -0.000000 -0.000000 -0.000002 -0.000000 0.000000 -0.000002 -0.000000 0.000000 0.000000 0.000000 -0.000000 -8.623116 -15.699813 4.189231 -0.000005 0.000002 0.000002 0.000000 -0.000000 -0.000000 -0.000000 -0.000000 -0.000000 0.000000 -0.000000 -0.000001 -0.015806 0.377966 -0.406650 0.000003 0.000000 0.000002 0.014762 -1.004322 0.005333 0.000000 -0.000000 -0.000000 -4.768445 -13.471033 -8.858877 -31.413645 -7.405902 6.159705 
0.000000 0.000000 0.000000 0.000014 0.000019 0.000026 0.000005 0.000002 0.000026 0.000004 0.000000 0.000000 -0.000000 0.000000 0.000001 2.477206 -0.671823 9.379059 -4.224992 0.978481 -17.138437 -43.496373 22.438797 5.505865 0.000016 -0.000005 0.000018 27.269114 -0.000017 -0.000022 -0.000015 -0.000000 -0.000012 33.792941 -0.000019 0.000019 -0.000035 -0.000004 0.000020 -0.019827 -0.259366 0.778673 0.000010 0.000013 0.000009 24.752471 -0.004803 -0.000817 -0.000007 -0.000010 -0.000026 30.481461 0.000111 0.001894 -0.000045 -0.000006 0.000020 0.000000 0.000000 0.000000 0.000003 -0.000006 -0.000011 -36.364791 0.000014 0.000015 10.899207 -0.000011 0.000005 0.000004 -0.000001 -0.000009 -0.008309 0.000001 -0.000000 -0.000001 0.000014 0.000017 -29.142184 -0.000020 0.000011 8.711755 0.282274 4.077749 0.000007 0.000007 -0.000017 0.000000 0.000000 0.000000 0.000000 -0.000000 -0.000000 -0.000002 -0.000000 0.000000 -0.000002 -0.000000 0.000000 0.000000 0.000000 -0.000000 -8.335810 -15.334031 4.606878 0.000001 0.000000 -0.000003 0.000000 -0.000000 -0.000000 -0.000000 -0.000000 -0.000000 0.000000 -0.000000 -0.000001 -0.015806 0.377966 -0.406650 0.000003 0.000000 0.000002 0.014762 -1.004322 0.005333 0.000000 -0.000000 -0.000000 -4.585257 -13.090934 -8.120592 -31.413649 -7.405900 6.159705 
